Coordinates
version=1
nRows=29
nColumns=22
inDegrees=yes

Units are S.I. units (second, meters, Newtons, ...)
If the header above contains a line with 'inDegrees', this indicates whether rotational values are in degrees (yes) or radians (no).

endheader
time	pelvis_tilt	pelvis_list	pelvis_rotation	pelvis_tx	pelvis_ty	pelvis_tz	hip_flexion_r	hip_adduction_r	hip_rotation_r	knee_angle_r	ankle_angle_r	subtalar_angle_r	hip_flexion_l	hip_adduction_l	hip_rotation_l	knee_angle_l	ankle_angle_l	subtalar_angle_l	lumbar_extension	lumbar_bending	lumbar_rotation
      1.40000000	    -13.94229315	      3.19918920	    -35.72210383	     -1.06770149	      0.96579992	     -0.17931436	     20.31647407	     10.20843285	     -4.27143249	    -20.74302813	     19.06369295	    -12.09359755	     27.08571207	     -7.02970574	      2.11532521	    -34.03471146	     23.32825633	      0.24256608	      1.60335159	      6.68519907	      5.22367166
      1.41000000	    -14.04341820	      2.95230278	    -35.76338411	     -1.06732170	      0.96542598	     -0.17782812	     20.08520589	     10.55448914	     -4.27519159	    -20.57125358	     19.10327029	    -12.15829392	     27.69437058	     -7.28823492	      2.41990485	    -35.42886121	     23.35237753	      0.21103680	      1.41959781	      7.00118065	      5.29073795
      1.42000000	    -14.13273414	      2.72672784	    -35.79872876	     -1.06685388	      0.96509797	     -0.17632417	     19.85098606	     10.87586535	     -4.25817688	    -20.39822082	     19.14629964	    -12.21734878	     28.33905708	     -7.50044343	      2.74135423	    -36.88288818	     23.36865975	      0.11915472	      1.24278061	      7.28551714	      5.35490787
      1.43000000	    -14.21672221	      2.52809087	    -35.82911078	     -1.06631542	      0.96480874	     -0.17480259	     19.62577308	     11.17129386	     -4.22783041	    -20.22739194	     19.18575423	    -12.27229409	     29.02392797	     -7.66346843	      3.08167933	    -38.37728761	     23.38911461	     -0.03540452	      1.08172602	      7.53416363	      5.41607099
      1.44000000	    -14.29356514	      2.36177330	    -35.86189028	     -1.06568309	      0.96456296	     -0.17326211	     19.40854384	     11.43504861	     -4.17880141	    -20.05887651	     19.22433454	    -12.32071911	     29.73942910	     -7.77162082	      3.42820742	    -39.89062699	     23.42743970	     -0.25022447	      0.93987403	      7.74652260	      5.47726543
      1.45000000	    -14.36058508	      2.23209048	    -35.89673595	     -1.06497345	      0.96435622	     -0.17170160	     19.20440486	     11.66248749	     -4.11149220	    -19.89975919	     19.26530062	    -12.36502542	     30.48192352	     -7.82002885	      3.77572562	    -41.40709499	     23.48459755	     -0.51639494	      0.81443637	      7.91424693	      5.54678256
      1.46000000	    -14.42548266	      2.14489460	    -35.93713917	     -1.06418116	      0.96416792	     -0.17012761	     19.02528036	     11.85171435	     -4.03406687	    -19.75417351	     19.30231416	    -12.41010964	     31.25421716	     -7.80564521	      4.12781412	    -42.90592250	     23.55715626	     -0.83082055	      0.71734495	      8.04003595	      5.62510554
      1.47000000	    -14.48684889	      2.10271020	    -35.98593220	     -1.06330165	      0.96399489	     -0.16855271	     18.87401361	     11.99883737	     -3.94540223	    -19.62753258	     19.34318553	    -12.45832029	     32.05090408	     -7.72391072	      4.48359117	    -44.37002621	     23.63004624	     -1.17244953	      0.64544690	      8.12306843	      5.71650915
      1.48000000	    -14.53458396	      2.10320826	    -36.04451115	     -1.06231549	      0.96384526	     -0.16696867	     18.73738441	     12.09942944	     -3.84670062	    -19.51751674	     19.39710866	    -12.50766769	     32.85541371	     -7.57310428	      4.83406274	    -45.77976679	     23.68613750	     -1.49948544	      0.59162382	      8.16211855	      5.82198382
      1.49000000	    -14.56524356	      2.16228854	    -36.10887083	     -1.06119261	      0.96370916	     -0.16540391	     18.62716095	     12.13208665	     -3.74476863	    -19.43536971	     19.47241669	    -12.56393777	     33.66572392	     -7.33091060	      5.18333567	    -47.11187550	     23.69920589	     -1.81065917	      0.56379579	      8.14261075	      5.94714480
      1.50000000	    -14.55705237	      2.22261263	    -36.19338722	     -1.05994198	      0.96366429	     -0.16383477	     18.47818403	     12.13892827	     -3.62227198	    -19.35937036	     19.53287316	    -12.59961689	     34.42941414	     -7.04659016	      5.51738728	    -48.35722588	     23.69427620	     -2.00771389	      0.49166552	      8.10948364	      6.07426447
      1.51000000	    -14.51345708	      2.34013088	    -36.28521087	     -1.05852271	      0.96365438	     -0.16228960	     18.34264700	     12.06486436	     -3.50323433	    -19.32105098	     19.62648457	    -12.63697856	     35.16985706	     -6.66927094	      5.82642698	    -49.48188534	     23.61455273	     -2.15962497	      0.42874897	      8.01235016	      6.21473244
      1.52000000	    -14.40935438	      2.48211720	    -36.39732150	     -1.05691305	      0.96374972	     -0.16073152	     18.16085982	     11.92634028	     -3.37472144	    -19.28978942	     19.74046594	    -12.65963809	     35.83391413	     -6.22775648	      6.08742169	    -50.45852856	     23.48499090	     -2.23747572	      0.32667614	      7.86504389	      6.38540349
      1.53000000	    -14.25105393	      2.59843379	    -36.52409525	     -1.05512511	      0.96396445	     -0.15913525	     17.89690791	     11.77265572	     -3.22699434	    -19.24228006	     19.86843188	    -12.66527966	     36.40866488	     -5.77886958	      6.29968597	    -51.28821835	     23.29721705	     -2.25559391	      0.15396676	      7.71755986	      6.55728283
      1.54000000	    -14.08412506	      2.79475867	    -36.66585195	     -1.05324491	      0.96411622	     -0.15757090	     17.71962742	     11.53225243	     -3.11378738	    -19.28881457	     20.02930902	    -12.65430675	     36.98953735	     -5.26476531	      6.44485243	    -51.93725607	     23.06115136	     -2.23954845	      0.02152286	      7.50038060	      6.74892112
      1.55000000	    -13.92410630	      2.94034049	    -36.80779638	     -1.05125108	      0.96427924	     -0.15591642	     17.48364883	     11.34060178	     -2.98277373	    -19.28381746	     20.21467102	    -12.63450526	     37.53637311	     -4.81879820	      6.54684433	    -52.43463734	     22.77783902	     -2.21022034	     -0.13832949	      7.33693125	      6.92863896
      1.56000000	    -13.76740093	      3.14129489	    -36.97288387	     -1.04922332	      0.96434505	     -0.15423893	     17.32979251	     11.10081453	     -2.86281440	    -19.37314129	     20.42751186	    -12.56555538	     38.08657693	     -4.35847144	      6.57421747	    -52.73727819	     22.53113897	     -2.13161802	     -0.26653930	      7.12529891	      7.15140454
      1.57000000	    -13.64713732	      3.31108328	    -37.13213926	     -1.04715021	      0.96433221	     -0.15248032	     17.17656662	     10.91419994	     -2.73047969	    -19.44519527	     20.65512831	    -12.48664559	     38.64689733	     -3.97409739	      6.56300795	    -52.88327895	     22.28154054	     -2.04406056	     -0.38565192	      6.96322337	      7.35960945
      1.58000000	    -13.55050013	      3.45168572	    -37.27864364	     -1.04501780	      0.96424684	     -0.15065218	     17.01703283	     10.77031510	     -2.58769230	    -19.50810720	     20.89185236	    -12.43268739	     39.20790703	     -3.65282009	      6.51500454	    -52.87359288	     22.05179497	     -1.96543716	     -0.50755503	      6.83806263	      7.54027238
      1.59000000	    -13.47130841	      3.61916061	    -37.43545641	     -1.04280426	      0.96406348	     -0.14876608	     16.90915908	     10.61543568	     -2.43880206	    -19.62195782	     21.12056778	    -12.36036788	     39.77430834	     -3.35002153	      6.41475715	    -52.68655349	     21.89250675	     -1.84852942	     -0.59273323	      6.70175718	      7.74937072
      1.60000000	    -13.39644236	      3.74062772	    -37.56262777	     -1.04048886	      0.96385001	     -0.14681714	     16.75379873	     10.50372967	     -2.27389415	    -19.70320316	     21.36325365	    -12.34105050	     40.31931714	     -3.09874723	      6.30034127	    -52.36498790	     21.73142055	     -1.76401592	     -0.70949710	      6.60412167	      7.88675668
      1.61000000	    -13.32317243	      3.88119803	    -37.69871986	     -1.03806464	      0.96358271	     -0.14481560	     16.62912427	     10.37474289	     -2.12289493	    -19.82974637	     21.58377355	    -12.32154746	     40.84476932	     -2.85819206	      6.14485817	    -51.87339957	     21.62862135	     -1.64825607	     -0.81039581	      6.49102326	      8.05497483
      1.62000000	    -13.24492691	      3.98560862	    -37.80122189	     -1.03551088	      0.96329617	     -0.14275838	     16.46040051	     10.27175253	     -1.95813988	    -19.93645558	     21.82429652	    -12.33610424	     41.33912173	     -2.64732056	      5.98309344	    -51.26118569	     21.51766760	     -1.56509269	     -0.94178031	      6.40418688	      8.13780153
      1.63000000	    -13.15584499	      4.08375350	    -37.89536645	     -1.03281699	      0.96298631	     -0.14064446	     16.27497979	     10.16274078	     -1.80140731	    -20.05223401	     22.06302951	    -12.36463278	     41.79874242	     -2.44462692	      5.80608567	    -50.52338607	     21.41318685	     -1.48451972	     -1.08657806	      6.31426007	      8.21092382
      1.64000000	    -13.05539434	      4.16299722	    -37.97689012	     -1.02998216	      0.96266176	     -0.13846806	     16.06104001	     10.05887252	     -1.65331445	    -20.17055067	     22.30642340	    -12.40528013	     42.21968210	     -2.25534730	      5.62103950	    -49.68055886	     21.29273525	     -1.40814112	     -1.25432477	      6.23201765	      8.25408181
      1.65000000	    -12.93887308	      4.22496384	    -38.04811974	     -1.02700560	      0.96232656	     -0.13622249	     15.81238830	      9.95541829	     -1.51080464	    -20.28712103	     22.55927984	    -12.45587928	     42.59965395	     -2.07438890	      5.43036168	    -48.74896471	     21.14599438	     -1.33139207	     -1.44812220	      6.15450151	      8.26738193
      1.66000000	    -12.81108218	      4.26495076	    -38.10850380	     -1.02387557	      0.96197934	     -0.13389317	     15.52420453	      9.85932630	     -1.37700076	    -20.39260770	     22.81805036	    -12.51260184	     42.93868319	     -1.90423346	      5.24585131	    -47.74192430	     20.97254979	     -1.24675362	     -1.66548220	      6.08727627	      8.25777148
      1.67000000	    -12.67251148	      4.28375281	    -38.16117558	     -1.02061713	      0.96160943	     -0.13147163	     15.20114167	      9.77135397	     -1.25369009	    -20.49323311	     23.08621863	    -12.57205353	     43.24410996	     -1.74809748	      5.06334424	    -46.68128283	     20.76817777	     -1.14515550	     -1.90621247	      6.02502918	      8.22041880
      1.68000000	    -12.51782784	      4.27722582	    -38.21248691	     -1.01720390	      0.96123758	     -0.12894684	     14.82689615	      9.69121973	     -1.13724878	    -20.57560503	     23.35303937	    -12.63163988	     43.50068005	     -1.60145108	      4.90036441	    -45.57158275	     20.56419511	     -1.00088846	     -2.17639737	      5.96956365	      8.18967116
